<?xml version="1.0" standalone="no"?>
<!DOCTYPE svg PUBLIC "-//W3C//DTD SVG 20010904//EN"
 "http://www.w3.org/TR/2001/REC-SVG-20010904/DTD/svg10.dtd">
<svg version="1.0" xmlns="http://www.w3.org/2000/svg"
 width="16.000000pt" height="16.000000pt" viewBox="0 0 16.000000 16.000000"
 preserveAspectRatio="xMidYMid meet">
<metadata>
Created by potrace 1.11, written by Peter Selinger 2001-2013
</metadata>
<g transform="translate(0.000000,16.000000) scale(0.003902,-0.003902)"
fill="#000000" stroke="none">
<path d="M3600 3299 c-71 -14 -147 -57 -210 -118 -65 -64 -93 -113 -116 -204
-79 -304 192 -585 502 -521 124 25 243 114 298 222 24 48 26 60 26 195 0 135
-1 146 -27 197 -32 64 -122 157 -182 188 -90 47 -190 61 -291 41z"/>
<path d="M1898 3284 c-2 -1 -28 -4 -58 -5 -193 -10 -407 -119 -591 -301 -84
-83 -89 -87 -90 -61 0 16 -2 35 -4 43 -1 8 -5 61 -9 116 -11 160 -11 161 -74
196 -25 13 -107 -13 -802 -251 l-165 -56 -3 -89 c-2 -49 1 -92 5 -97 4 -4 33
-10 63 -13 30 -4 80 -11 110 -16 30 -6 67 -11 83 -12 15 -1 27 -5 28 -8 9 -41
11 -206 14 -808 2 -392 1 -722 -2 -732 -4 -14 -20 -22 -62 -30 -31 -7 -87 -19
-126 -28 l-70 -17 0 -112 -1 -113 632 0 632 0 0 114 -1 113 -111 22 c-61 13
-113 24 -114 26 -2 2 -5 335 -6 740 l-1 737 45 33 c202 147 435 185 536 87 44
-43 68 -95 85 -182 17 -92 15 -1400 -2 -1411 -7 -4 -63 -17 -125 -29 l-112
-22 -4 -67 c-2 -36 -2 -87 0 -114 l3 -47 633 0 632 0 0 112 -1 112 -30 8 c-16
4 -46 10 -65 13 -19 3 -60 11 -90 18 l-55 12 -2 650 c-1 358 -5 695 -8 750
-21 356 -191 609 -464 689 -70 20 -242 41 -253 30z"/>
<path d="M3588 1669 c-48 -11 -145 -61 -178 -91 -171 -157 -199 -408 -65 -586
48 -64 126 -122 197 -148 69 -25 194 -30 264 -9 115 33 217 116 269 219 23 46
25 61 25 190 0 119 -4 148 -20 185 -21 46 -74 118 -102 139 -9 7 -23 18 -30
25 -73 70 -239 105 -360 76z"/>
</g>
</svg>
