<?xml version="1.0" standalone="no"?>
<!DOCTYPE svg PUBLIC "-//W3C//DTD SVG 20010904//EN"
 "http://www.w3.org/TR/2001/REC-SVG-20010904/DTD/svg10.dtd">
<svg version="1.0" xmlns="http://www.w3.org/2000/svg"
 width="1630.000000pt" height="1630.000000pt" viewBox="0 0 1630.000000 1630.000000"
 preserveAspectRatio="xMidYMid meet">
<metadata>
Created by potrace 1.11, written by Peter Selinger 2001-2013
</metadata>
<g transform="translate(0.000000,1630.000000) scale(0.100000,-0.100000)"
fill="#000000" stroke="none">
<path d="M4890 15023 c-1786 -56 -2544 -615 -2649 -1952 -20 -252 -12 -751 20
-1176 5 -77 30 -360 54 -630 57 -633 67 -803 68 -1125 1 -243 -1 -272 -21
-345 -152 -554 -761 -868 -1837 -945 -77 -5 -182 -10 -232 -10 l-93 0 0 -689
0 -688 143 -7 c671 -32 1154 -138 1492 -328 123 -69 206 -132 296 -225 121
-124 190 -246 232 -411 20 -80 22 -108 20 -352 -2 -351 -12 -507 -83 -1270
-48 -517 -60 -731 -67 -1115 -11 -687 48 -1054 229 -1420 292 -588 868 -910
1828 -1020 307 -35 390 -38 1263 -42 l887 -5 0 561 0 561 1670 0 1670 0 0
-560 0 -560 768 0 c763 0 1000 7 1287 36 1341 135 1968 645 2120 1721 31 218
39 490 27 836 -15 382 -29 572 -82 1087 -69 671 -99 1143 -86 1360 22 385 229
663 640 861 338 162 753 249 1342 281 l224 12 0 688 0 688 -96 0 c-339 0 -849
70 -1132 156 -547 166 -848 418 -954 799 -21 74 -22 100 -21 345 1 314 18 563
78 1155 59 581 72 758 87 1142 35 956 -116 1523 -512 1924 -247 250 -547 409
-980 519 -470 120 -873 150 -2017 150 l-693 0 0 -570 0 -570 -1670 0 -1670 0
-2 568 -3 567 -730 0 c-401 1 -768 0 -815 -2z m6525 -4198 c343 -60 621 -320
717 -672 31 -112 30 -334 -1 -448 -44 -165 -126 -300 -254 -421 -340 -324
-894 -324 -1234 0 -128 121 -210 256 -254 421 -31 114 -32 336 -1 448 128 467
564 752 1027 672z m-5578 -81 c43 -26 84 -52 91 -58 8 -8 20 -113 37 -311 13
-165 27 -324 31 -353 l5 -52 152 153 c348 352 657 538 1028 621 467 104 933
29 1256 -200 322 -229 509 -589 584 -1127 7 -44 13 -636 17 -1554 4 -815 10
-1484 13 -1487 3 -3 107 -26 230 -51 123 -25 234 -47 247 -50 l22 -5 0 -235 0
-235 -1320 0 -1320 0 0 235 0 235 23 5 c12 3 127 27 255 54 129 27 237 52 240
56 4 4 7 635 7 1403 0 1080 -3 1417 -13 1484 -31 213 -86 343 -183 432 -224
208 -696 127 -1128 -194 l-83 -61 4 -1534 c1 -843 6 -1536 10 -1540 4 -4 100
-27 215 -51 114 -24 218 -46 231 -49 l22 -5 0 -235 0 -235 -1315 0 -1315 0 0
235 0 235 23 5 c12 3 131 30 265 59 134 30 247 57 250 61 13 13 8 2785 -6
3019 -7 121 -14 221 -16 223 -2 2 -125 22 -272 43 -148 22 -284 42 -302 45
l-32 6 2 196 3 195 980 334 c539 183 981 333 982 334 1 0 37 -21 80 -46z
m5578 -3309 c343 -60 621 -320 717 -672 31 -112 30 -334 -1 -448 -44 -165
-126 -300 -254 -421 -340 -324 -894 -324 -1234 0 -128 121 -210 256 -254 421
-31 114 -32 336 -1 448 128 467 564 752 1027 672z"/>
</g>
</svg>
